<svg xmlns="http://www.w3.org/2000/svg" width="200" height="200" viewBox="0 0 200 200">
  <rect width="200" height="200" fill="#FF66B3"/>
  <text x="100" y="80" font-family="Comic Sans MS, Arial, sans-serif" font-size="80" text-anchor="middle" dominant-baseline="middle" fill="#FFFFFF" stroke="#000000" stroke-width="2">20</text>
  <circle cx="60" cy="125" r="6" fill="black"/>
    <circle cx="90" cy="125" r="6" fill="black"/>
    <circle cx="120" cy="125" r="6" fill="black"/>
    <circle cx="150" cy="125" r="6" fill="black"/>
    <circle cx="180" cy="125" r="6" fill="black"/>
    <circle cx="60" cy="140" r="6" fill="black"/>
    <circle cx="90" cy="140" r="6" fill="black"/>
    <circle cx="120" cy="140" r="6" fill="black"/>
    <circle cx="150" cy="140" r="6" fill="black"/>
    <circle cx="180" cy="140" r="6" fill="black"/>
    <circle cx="-35" cy="155" r="6" fill="black"/>
    <circle cx="-5" cy="155" r="6" fill="black"/>
    <circle cx="25" cy="155" r="6" fill="black"/>
    <circle cx="55" cy="155" r="6" fill="black"/>
    <circle cx="85" cy="155" r="6" fill="black"/>
    <circle cx="115" cy="155" r="6" fill="black"/>
    <circle cx="145" cy="155" r="6" fill="black"/>
    <circle cx="175" cy="155" r="6" fill="black"/>
    <circle cx="205" cy="155" r="6" fill="black"/>
    <circle cx="235" cy="155" r="6" fill="black"/>
</svg>